HIERARCHY
ROOT Hips
{
	OFFSET 0.000000 87.230942 0.000000
	CHANNELS 6 Xposition Yposition Zposition Xrotation Yrotation Zrotation
	JOINT Pelvis
	{
		OFFSET 0.000000 0.000000 0.000000
		CHANNELS 3 Xrotation Yrotation Zrotation
		JOINT LeftUpLeg
		{
			OFFSET 12.017000 -9.376404 -2.439400
			CHANNELS 3 Xrotation Yrotation Zrotation
			JOINT LeftLeg
			{
				OFFSET -0.007312 -32.846973 2.110600
				CHANNELS 3 Xrotation Yrotation Zrotation
				JOINT LeftFoot
				{
					OFFSET 0.007312 -32.065170 -0.570400
					CHANNELS 3 Xrotation Yrotation Zrotation
					JOINT LeftToeBase
					{
						OFFSET 0.728300 -11.045900 13.180700
						CHANNELS 3 Xrotation Yrotation Zrotation
						End Site
						{
							OFFSET 0.000000 17.212589 0.000000
						}
					}
				}
				JOINT LeftPantLeg
				{
					OFFSET 0.002788 -16.709013 -3.143600
					CHANNELS 3 Xrotation Yrotation Zrotation
					End Site
					{
						OFFSET -0.605125 24.528742 0.000000
					}
				}
			}
			JOINT Left_Butt
			{
				OFFSET -6.630234 1.326584 -3.183700
				CHANNELS 3 Xrotation Yrotation Zrotation
				End Site
				{
					OFFSET -0.498041 20.188049 0.000000
				}
			}
		}
		JOINT RightUpLeg
		{
			OFFSET -11.717000 -9.376404 -2.439400
			CHANNELS 3 Xrotation Yrotation Zrotation
			JOINT RightLeg
			{
				OFFSET -0.003241 -32.846912 2.110600
				CHANNELS 3 Xrotation Yrotation Zrotation
				JOINT RightFoot
				{
					OFFSET 0.003241 -32.065136 -0.570500
					CHANNELS 3 Xrotation Yrotation Zrotation
					JOINT RightToeBase
					{
						OFFSET -0.728300 -11.045901 13.180700
						CHANNELS 3 Xrotation Yrotation Zrotation
						End Site
						{
							OFFSET 0.000000 17.212593 0.000000
						}
					}
				}
				JOINT RightPantLeg
				{
					OFFSET 0.008142 -16.708982 -3.143700
					CHANNELS 3 Xrotation Yrotation Zrotation
					End Site
					{
						OFFSET 0.605088 24.528715 0.000000
					}
				}
			}
			JOINT Right_Butt
			{
				OFFSET 6.630732 1.326584 -3.183700
				CHANNELS 3 Xrotation Yrotation Zrotation
				End Site
				{
					OFFSET 0.498015 20.188240 0.000000
				}
			}
		}
	}
	JOINT Spine
	{
		OFFSET -0.062400 7.848404 3.918300
		CHANNELS 3 Xrotation Yrotation Zrotation
		JOINT Spine1
		{
			OFFSET -0.072800 11.422302 0.713400
			CHANNELS 3 Xrotation Yrotation Zrotation
			JOINT Spine2
			{
				OFFSET -0.083200 13.054001 -1.931600
				CHANNELS 3 Xrotation Yrotation Zrotation
				JOINT Neck
				{
					OFFSET -0.092200 14.121796 -5.138800
					CHANNELS 3 Xrotation Yrotation Zrotation
					JOINT Head
					{
						OFFSET 0.000200 10.447403 -0.842000
						CHANNELS 3 Xrotation Yrotation Zrotation
						JOINT Visor
						{
							OFFSET 0.457100 25.671204 16.550400
							CHANNELS 3 Xrotation Yrotation Zrotation
							End Site
							{
								OFFSET 0.000000 26.061493 0.000000
							}
						}
						JOINT HairMidA
						{
							OFFSET 0.459400 31.585403 8.437400
							CHANNELS 3 Xrotation Yrotation Zrotation
							End Site
							{
								OFFSET 0.000000 26.061493 0.000000
							}
						}
						JOINT HairMidB
						{
							OFFSET 0.464000 33.309204 -8.389700
							CHANNELS 3 Xrotation Yrotation Zrotation
							End Site
							{
								OFFSET 0.000000 26.061493 0.000000
							}
						}
						JOINT HairMidC
						{
							OFFSET 0.466600 27.991196 -17.375099
							CHANNELS 3 Xrotation Yrotation Zrotation
							End Site
							{
								OFFSET 0.000000 26.061493 0.000000
							}
						}
						JOINT HairMidD
						{
							OFFSET 0.467700 17.888092 -21.169500
							CHANNELS 3 Xrotation Yrotation Zrotation
							End Site
							{
								OFFSET 0.000000 26.061493 0.000000
							}
						}
						JOINT HairMidE
						{
							OFFSET 5.325700 3.514603 -14.369699
							CHANNELS 3 Xrotation Yrotation Zrotation
							End Site
							{
								OFFSET 0.000000 26.061493 0.000000
							}
						}
						JOINT HairMidF
						{
							OFFSET -4.394100 3.514603 -14.372400
							CHANNELS 3 Xrotation Yrotation Zrotation
							End Site
							{
								OFFSET 0.000000 26.061493 0.000000
							}
						}
						JOINT HairLeftA
						{
							OFFSET 15.319900 25.746506 2.623300
							CHANNELS 3 Xrotation Yrotation Zrotation
							End Site
							{
								OFFSET 0.000000 26.061493 0.000000
							}
						}
						JOINT HairLeftB
						{
							OFFSET 12.619500 29.289398 -8.731499
							CHANNELS 3 Xrotation Yrotation Zrotation
							End Site
							{
								OFFSET 0.000000 26.061493 0.000000
							}
						}
						JOINT HairLeftC
						{
							OFFSET 15.714800 15.959900 2.909800
							CHANNELS 3 Xrotation Yrotation Zrotation
							End Site
							{
								OFFSET 0.000000 26.061493 0.000000
							}
						}
						JOINT HairLeftD
						{
							OFFSET 16.101700 18.437408 -7.553200
							CHANNELS 3 Xrotation Yrotation Zrotation
							End Site
							{
								OFFSET 0.000000 26.061493 0.000000
							}
						}
						JOINT HairLeftE
						{
							OFFSET 9.731900 17.915009 -18.316799
							CHANNELS 3 Xrotation Yrotation Zrotation
							End Site
							{
								OFFSET 0.000000 26.061493 0.000000
							}
						}
						JOINT HairLeftF
						{
							OFFSET 11.204300 4.953598 -9.668100
							CHANNELS 3 Xrotation Yrotation Zrotation
							End Site
							{
								OFFSET 0.000000 26.061493 0.000000
							}
						}
						JOINT HairRightA
						{
							OFFSET -14.397900 25.746307 2.615100
							CHANNELS 3 Xrotation Yrotation Zrotation
							End Site
							{
								OFFSET 0.000000 26.061493 0.000000
							}
						}
						JOINT HairRightB
						{
							OFFSET -11.691200 29.289200 -8.738199
							CHANNELS 3 Xrotation Yrotation Zrotation
							End Site
							{
								OFFSET 0.000000 26.061493 0.000000
							}
						}
						JOINT HairRightC
						{
							OFFSET -14.792900 15.959702 2.901400
							CHANNELS 3 Xrotation Yrotation Zrotation
							End Site
							{
								OFFSET 0.000000 26.061493 0.000000
							}
						}
						JOINT HairRightD
						{
							OFFSET -15.174000 18.437195 -7.561900
							CHANNELS 3 Xrotation Yrotation Zrotation
							End Site
							{
								OFFSET 0.000000 26.061493 0.000000
							}
						}
						JOINT HairRightE
						{
							OFFSET -8.798200 17.914902 -18.322001
							CHANNELS 3 Xrotation Yrotation Zrotation
							End Site
							{
								OFFSET 0.000000 26.061493 0.000000
							}
						}
						JOINT HairRightF
						{
							OFFSET -10.275200 4.953506 -9.674099
							CHANNELS 3 Xrotation Yrotation Zrotation
							End Site
							{
								OFFSET 0.000000 26.061493 0.000000
							}
						}
					}
				}
				JOINT LeftShoulder
				{
					OFFSET 5.133500 7.341202 -1.867600
					CHANNELS 3 Xrotation Yrotation Zrotation
					JOINT LeftArm
					{
						OFFSET 8.072663 0.936867 -2.176600
						CHANNELS 3 Xrotation Yrotation Zrotation
						JOINT LeftForeArm
						{
							OFFSET 31.271999 0.000000 0.000000
							CHANNELS 3 Xrotation Yrotation Zrotation
							JOINT LeftHand
							{
								OFFSET 31.771030 0.000000 0.000000
								CHANNELS 3 Xrotation Yrotation Zrotation
								JOINT LeftHandThumb1
								{
									OFFSET 2.886520 -2.557846 4.416640
									CHANNELS 3 Xrotation Yrotation Zrotation
									JOINT LeftHandThumb2
									{
										OFFSET 2.371025 -1.368912 1.368911
										CHANNELS 3 Xrotation Yrotation Zrotation
										JOINT LeftHandThumb3
										{
											OFFSET 2.243378 -1.295212 1.295213
											CHANNELS 3 Xrotation Yrotation Zrotation
											End Site
											{
												OFFSET -0.332611 2.876945 0.020015
											}
										}
									}
								}
								JOINT LeftHandIndex1
								{
									OFFSET 8.568985 -0.641945 3.119977
									CHANNELS 3 Xrotation Yrotation Zrotation
									JOINT LeftHandIndex2
									{
										OFFSET 3.348503 0.000000 0.000000
										CHANNELS 3 Xrotation Yrotation Zrotation
										JOINT LeftHandIndex3
										{
											OFFSET 3.314552 0.000000 0.000000
											CHANNELS 3 Xrotation Yrotation Zrotation
											End Site
											{
												OFFSET -1.032898 3.075485 0.678796
											}
										}
									}
								}
								JOINT LeftHandMiddle1
								{
									OFFSET 8.124603 0.000000 0.000000
									CHANNELS 3 Xrotation Yrotation Zrotation
									JOINT LeftHandMiddle2
									{
										OFFSET 4.166275 0.000000 0.000000
										CHANNELS 3 Xrotation Yrotation Zrotation
										JOINT LeftHandMiddle3
										{
											OFFSET 3.018135 0.000000 0.000000
											CHANNELS 3 Xrotation Yrotation Zrotation
											End Site
											{
												OFFSET -1.032700 2.767982 0.617226
											}
										}
									}
								}
								JOINT LeftHandRing1
								{
									OFFSET 8.571686 -0.031357 -2.884048
									CHANNELS 3 Xrotation Yrotation Zrotation
									JOINT LeftHandRing2
									{
										OFFSET 3.671181 0.000000 0.000000
										CHANNELS 3 Xrotation Yrotation Zrotation
										JOINT LeftHandRing3
										{
											OFFSET 2.728851 0.000000 0.000000
											CHANNELS 3 Xrotation Yrotation Zrotation
											End Site
											{
												OFFSET -0.815796 2.539223 0.577389
											}
										}
									}
								}
								JOINT LeftHandPinky1
								{
									OFFSET 7.854515 -0.675232 -5.213020
									CHANNELS 3 Xrotation Yrotation Zrotation
									JOINT LeftHandPinky2
									{
										OFFSET 3.068596 0.000000 0.000000
										CHANNELS 3 Xrotation Yrotation Zrotation
										JOINT LeftHandPinky3
										{
											OFFSET 2.396042 0.000000 0.000000
											CHANNELS 3 Xrotation Yrotation Zrotation
											End Site
											{
												OFFSET -0.524597 2.267998 0.567429
											}
										}
									}
								}
							}
							JOINT LeftSleeve
							{
								OFFSET 19.684509 -0.200119 0.476146
								CHANNELS 3 Xrotation Yrotation Zrotation
								End Site
								{
									OFFSET -0.031017 25.731133 -0.002868
								}
							}
						}
					}
				}
				JOINT RightShoulder
				{
					OFFSET -4.395900 7.341202 -1.870200
					CHANNELS 3 Xrotation Yrotation Zrotation
					JOINT RightArm
					{
						OFFSET -8.071453 0.936867 -2.181100
						CHANNELS 3 Xrotation Yrotation Zrotation
						JOINT RightForeArm
						{
							OFFSET -31.272011 0.000000 0.000000
							CHANNELS 3 Xrotation Yrotation Zrotation
							JOINT RightHand
							{
								OFFSET -31.771019 0.000000 0.000000
								CHANNELS 3 Xrotation Yrotation Zrotation
								JOINT RightHandThumb1
								{
									OFFSET -2.886520 -2.557808 4.416626
									CHANNELS 3 Xrotation Yrotation Zrotation
									JOINT RightHandThumb2
									{
										OFFSET -2.371056 -1.368927 1.368928
										CHANNELS 3 Xrotation Yrotation Zrotation
										JOINT RightHandThumb3
										{
											OFFSET -2.243362 -1.295204 1.295206
											CHANNELS 3 Xrotation Yrotation Zrotation
											End Site
											{
												OFFSET 0.332642 2.876938 0.020047
											}
										}
									}
								}
								JOINT RightHandIndex1
								{
									OFFSET -8.568993 -0.641953 3.120017
									CHANNELS 3 Xrotation Yrotation Zrotation
									JOINT RightHandIndex2
									{
										OFFSET -3.348518 0.000000 0.000000
										CHANNELS 3 Xrotation Yrotation Zrotation
										JOINT RightHandIndex3
										{
											OFFSET -3.314552 0.000000 0.000000
											CHANNELS 3 Xrotation Yrotation Zrotation
											End Site
											{
												OFFSET 1.032898 3.075478 0.678804
											}
										}
									}
								}
								JOINT RightHandMiddle1
								{
									OFFSET -8.124588 0.000000 0.000000
									CHANNELS 3 Xrotation Yrotation Zrotation
									JOINT RightHandMiddle2
									{
										OFFSET -4.166275 0.000000 0.000000
										CHANNELS 3 Xrotation Yrotation Zrotation
										JOINT RightHandMiddle3
										{
											OFFSET -3.018097 0.000000 0.000000
											CHANNELS 3 Xrotation Yrotation Zrotation
											End Site
											{
												OFFSET 1.032700 2.767937 0.617197
											}
										}
									}
								}
								JOINT RightHandRing1
								{
									OFFSET -8.571747 -0.031349 -2.884061
									CHANNELS 3 Xrotation Yrotation Zrotation
									JOINT RightHandRing2
									{
										OFFSET -3.671204 0.000000 0.000000
										CHANNELS 3 Xrotation Yrotation Zrotation
										JOINT RightHandRing3
										{
											OFFSET -2.728874 0.000000 0.000000
											CHANNELS 3 Xrotation Yrotation Zrotation
											End Site
											{
												OFFSET 0.815804 2.539261 0.577413
											}
										}
									}
								}
								JOINT RightHandPinky1
								{
									OFFSET -7.854561 -0.675247 -5.212970
									CHANNELS 3 Xrotation Yrotation Zrotation
									JOINT RightHandPinky2
									{
										OFFSET -3.068550 0.000000 0.000000
										CHANNELS 3 Xrotation Yrotation Zrotation
										JOINT RightHandPinky3
										{
											OFFSET -2.395981 0.000000 0.000000
											CHANNELS 3 Xrotation Yrotation Zrotation
											End Site
											{
												OFFSET 0.524605 2.267952 0.567413
											}
										}
									}
								}
							}
							JOINT RightSleeve
							{
								OFFSET -19.684753 -0.200165 0.476065
								CHANNELS 3 Xrotation Yrotation Zrotation
								End Site
								{
									OFFSET 0.031342 25.731255 -0.002917
								}
							}
						}
					}
				}
				JOINT Hood
				{
					OFFSET 0.369700 14.447800 -5.317800
					CHANNELS 3 Xrotation Yrotation Zrotation
					JOINT Hood1
					{
						OFFSET 0.001700 -5.553802 -5.895100
						CHANNELS 3 Xrotation Yrotation Zrotation
						JOINT Hood2
						{
							OFFSET -0.000200 -8.380501 0.763600
							CHANNELS 3 Xrotation Yrotation Zrotation
							End Site
							{
								OFFSET 0.000000 8.415215 0.000000
							}
						}
					}
				}
				JOINT Left_Breast
				{
					OFFSET 5.682500 3.120102 3.188800
					CHANNELS 3 Xrotation Yrotation Zrotation
					End Site
					{
						OFFSET 0.000000 10.528564 0.000000
					}
				}
				JOINT Right_Breast
				{
					OFFSET -4.947600 3.120102 3.185900
					CHANNELS 3 Xrotation Yrotation Zrotation
					End Site
					{
						OFFSET 0.000000 10.528564 0.000000
					}
				}
				JOINT Whistle
				{
					OFFSET 0.368200 11.471298 0.095400
					CHANNELS 3 Xrotation Yrotation Zrotation
					JOINT Whistle1
					{
						OFFSET -0.002000 -6.349899 7.479800
						CHANNELS 3 Xrotation Yrotation Zrotation
						JOINT Whistle2
						{
							OFFSET -0.001300 -8.217598 4.717600
							CHANNELS 3 Xrotation Yrotation Zrotation
							End Site
							{
								OFFSET 0.000000 9.475479 0.000000
							}
						}
					}
				}
			}
		}
		JOINT Belly
		{
			OFFSET 0.212400 1.593002 3.163700
			CHANNELS 3 Xrotation Yrotation Zrotation
			End Site
			{
				OFFSET 0.000000 7.496635 0.000000
			}
		}
	}
	JOINT FitGrandmaFacialAnim_Joint
	{
		OFFSET 1.150000 -86.211197 -1.220100
		CHANNELS 3 Xrotation Yrotation Zrotation
		End Site
		{
			OFFSET 0.000000 31.666618 0.000000
		}
	}
}
MOTION
Frames: 4
Frame Time: 0.016667
9.547434 82.555908 0.378328 4.156442 -46.511683 3.328719 -0.000000 0.000001 0.000000 -17.580752 16.498371 3.831644 36.584245 24.245901 3.475539 -16.090626 21.794020 -13.025715 0.000000 -0.000001 -0.000000 0.000000 -0.000000 -0.000001 0.000000 -0.000001 -0.000000 -19.779273 -40.583191 -18.723418 35.087710 -12.233694 -2.445738 -19.261769 -7.791629 13.970909 0.000000 0.000000 -0.000000 0.000001 0.000001 0.000001 -0.000001 0.000000 -0.000000 10.007746 -5.761239 2.226895 3.056893 -1.359244 -0.696759 -8.919071 -4.431386 -1.692196 -8.566929 -5.142921 -4.413994 10.444448 -20.693641 6.191014 -0.000000 -0.000000 -0.000000 -0.000000 -0.000000 -0.000000 -0.000000 -0.000000 -0.000000 -0.000000 -0.000000 -0.000000 -0.000000 -0.000000 -0.000000 -0.000000 -0.000000 -0.000000 -0.000000 -0.000000 -0.000000 -0.000000 -0.000000 -0.000000 -0.000000 -0.000000 -0.000000 -0.000000 -0.000000 -0.000000 -0.000000 -0.000000 -0.000000 -0.000000 -0.000000 -0.000000 -0.000000 -0.000000 -0.000000 -0.000000 -0.000000 -0.000000 -0.000000 -0.000000 -0.000000 -0.000000 -0.000000 -0.000000 -0.000000 -0.000000 -0.000000 -0.000000 -0.000000 -0.000000 -0.000000 -0.000000 -0.000000 -0.955896 -3.915908 -2.538331 13.282554 6.823591 -62.263601 -0.021055 -42.236886 -0.010391 -13.882447 -0.489204 0.693324 10.625186 -8.591988 14.272397 -0.294847 14.668202 -7.135013 -0.000003 0.000002 0.000001 1.031648 -1.592177 -15.118851 -0.015777 -1.091860 -24.286199 0.000002 0.000002 -0.000003 1.615787 -0.182619 -33.849280 -0.338697 -1.382269 -28.184984 0.000000 -0.000003 -0.000004 -0.356901 -2.845860 -41.642946 -0.398109 -1.519187 -29.911885 -0.000002 0.000003 0.000005 0.340447 -1.216939 -35.934086 -0.410234 -1.748702 -33.792525 -0.000003 0.000001 0.000000 0.000000 0.000001 -0.000000 -0.771037 0.311211 0.884124 3.113838 10.823047 70.823850 0.587853 47.471020 -0.255451 14.368631 15.131246 2.773470 8.265281 7.734440 -18.880805 5.407327 -20.572683 9.835186 0.000002 0.000003 0.000002 0.428035 3.999534 18.226199 -0.076243 1.217061 27.275418 -0.000001 -0.000004 0.000000 -5.761806 0.366107 35.692793 -0.334675 1.374754 28.018560 -0.000001 -0.000001 -0.000002 -11.821778 -3.411398 42.352470 -0.510543 1.699977 33.914307 0.000001 -0.000001 0.000003 -5.981492 1.104388 36.964513 -0.585433 1.985551 39.176165 -0.000001 0.000000 0.000001 -0.000001 0.000001 0.000001 0.000000 0.000001 0.000000 0.000000 0.000001 0.000000 0.000000 0.000001 0.000000 0.000000 0.000001 0.000000 0.000000 0.000001 0.000000 0.000000 0.000001 0.000000 -0.000000 -0.000001 -0.000000 -0.000000 -0.000001 -0.000000 0.000000 -0.000001 -0.000001 -0.000000 0.000001 0.000000 
9.328801 82.566177 0.106082 3.939933 -48.230165 3.437539 -0.000000 -0.000001 -0.000000 -16.873456 16.877274 3.886577 36.424712 25.232274 3.428072 -16.064555 22.209496 -13.643425 -0.000000 -0.000001 0.000000 0.000003 -0.000000 0.000002 -0.000000 -0.000001 -0.000000 -20.174709 -40.323559 -19.147778 35.228798 -11.962566 -2.433494 -18.690217 -7.595991 13.771843 0.000000 0.000000 0.000000 0.000001 -0.000001 -0.000001 -0.000001 0.000000 0.000000 9.932689 -5.780237 2.176158 2.967050 -1.211544 -0.652809 -9.020276 -4.366686 -1.601919 -8.544200 -4.716525 -4.541432 10.608240 -19.712421 5.755014 -0.000000 0.000001 0.000000 -0.000000 0.000001 0.000000 -0.000000 0.000001 0.000000 -0.000000 0.000001 0.000000 -0.000000 0.000001 0.000000 -0.000000 0.000001 0.000000 -0.000000 0.000001 0.000000 -0.000000 0.000001 0.000000 -0.000000 0.000001 0.000000 -0.000000 0.000001 0.000000 -0.000000 0.000001 0.000000 -0.000000 0.000001 0.000000 -0.000000 0.000001 0.000000 -0.000000 0.000001 0.000000 -0.000000 0.000001 0.000000 -0.000000 0.000001 0.000000 -0.000000 0.000001 0.000000 -0.000000 0.000001 0.000000 -0.000000 0.000001 0.000000 -0.878239 -4.226528 -2.233010 13.531517 6.780625 -62.153021 -0.020250 -42.480607 -0.009980 -13.978593 -1.700578 0.681736 10.610720 -8.609790 14.293156 -0.357688 14.631819 -7.082090 0.000000 0.000003 -0.000003 1.074739 -1.682896 -15.031737 -0.013513 -1.086897 -24.168022 0.000001 -0.000001 0.000002 1.556054 -0.222459 -33.860297 -0.339059 -1.382961 -28.200477 -0.000001 -0.000003 0.000001 -0.383712 -2.808683 -41.684231 -0.402813 -1.527352 -30.088745 0.000001 -0.000003 0.000001 0.287505 -1.145999 -35.957193 -0.410984 -1.749775 -33.816707 -0.000001 -0.000001 0.000002 -0.000001 -0.000001 0.000001 -0.846761 0.820790 0.916897 2.989864 9.871413 70.799514 0.512248 47.191064 -0.227939 14.622733 15.064752 2.863391 8.265283 7.734446 -18.880801 5.407328 -20.572683 9.835179 -0.000001 0.000001 -0.000001 0.423806 3.988746 18.092819 -0.070905 1.206690 27.024429 -0.000001 0.000006 0.000001 -5.693471 0.419502 35.471327 -0.331008 1.367873 27.864925 0.000000 0.000003 -0.000001 -11.722657 -3.292675 42.202550 -0.507882 1.695976 33.824336 -0.000000 -0.000001 -0.000001 -5.917749 1.153293 36.846538 -0.580057 1.978864 39.019201 0.000000 0.000001 0.000001 0.000001 0.000001 -0.000002 0.000000 0.000000 0.000000 0.000000 0.000000 0.000000 0.000000 0.000000 0.000000 0.000000 0.000000 0.000000 0.000000 0.000000 0.000000 0.000000 0.000000 0.000000 -0.000000 -0.000002 0.000000 -0.000000 -0.000002 0.000000 0.000000 0.000003 -0.000001 -0.000000 -0.000001 -0.000000 
9.109024 82.588463 -0.200419 3.766142 -49.792499 3.474339 0.000000 -0.000001 -0.000000 -16.764660 17.220295 4.196997 36.930348 26.434272 3.410620 -15.884578 22.096886 -13.969010 0.000000 -0.000001 -0.000000 0.000001 -0.000000 -0.000001 -0.000001 -0.000003 -0.000000 -20.525408 -40.023355 -19.209528 35.612210 -11.280553 -2.402735 -19.089182 -6.949079 13.160716 -0.000000 0.000002 0.000000 -0.000001 0.000001 0.000000 -0.000000 -0.000000 0.000001 9.864283 -5.732427 2.128935 2.895062 -1.071959 -0.562725 -9.100045 -4.316073 -1.464393 -8.530109 -4.413671 -4.597617 10.720728 -18.797804 5.274395 -0.000000 0.000000 -0.000000 -0.000000 0.000000 -0.000000 -0.000000 0.000000 -0.000000 -0.000000 0.000000 -0.000000 -0.000000 0.000000 -0.000000 -0.000000 0.000000 -0.000000 -0.000000 0.000000 -0.000000 -0.000000 0.000000 -0.000000 -0.000000 0.000000 -0.000000 -0.000000 0.000000 -0.000000 -0.000000 0.000000 -0.000000 -0.000000 0.000000 -0.000000 -0.000000 0.000000 -0.000000 -0.000000 0.000000 -0.000000 -0.000000 0.000000 -0.000000 -0.000000 0.000000 -0.000000 -0.000000 0.000000 -0.000000 -0.000000 0.000000 -0.000000 -0.000000 0.000000 -0.000000 -0.800620 -4.500669 -1.933183 13.652197 6.640053 -62.119614 -0.019453 -42.599798 -0.009538 -13.882686 -2.727292 0.797332 10.581105 -8.637588 14.338661 -0.414996 14.605900 -7.028255 -0.000000 0.000002 -0.000003 1.114351 -1.838929 -14.860081 -0.009416 -1.077758 -23.952763 0.000003 0.000001 0.000001 1.447528 -0.296473 -33.824548 -0.338992 -1.382827 -28.197587 0.000000 -0.000004 -0.000001 -0.428737 -2.746214 -41.695364 -0.407294 -1.535063 -30.256939 0.000001 -0.000004 -0.000004 0.203730 -1.028219 -35.966239 -0.410864 -1.749620 -33.813084 -0.000001 0.000002 -0.000002 -0.000001 -0.000001 -0.000001 -0.922054 1.266276 0.964826 2.893475 8.881790 70.701569 0.416224 46.895823 -0.192404 14.871103 14.853437 2.950795 8.265279 7.734446 -18.880803 5.407325 -20.572678 9.835176 0.000000 -0.000000 -0.000001 0.417010 3.978096 17.908618 -0.063684 1.192404 26.680720 0.000004 0.000005 0.000001 -5.592591 0.494511 35.169061 -0.326004 1.358341 27.654878 -0.000001 0.000000 0.000000 -11.569889 -3.123237 41.996101 -0.504094 1.690300 33.696212 0.000001 -0.000001 -0.000001 -5.821075 1.217420 36.684867 -0.572469 1.969460 38.798251 -0.000001 0.000000 -0.000000 -0.000000 0.000003 -0.000002 -0.000000 -0.000002 0.000000 -0.000000 -0.000002 0.000000 -0.000000 -0.000002 0.000000 -0.000000 -0.000002 0.000000 -0.000000 -0.000002 0.000000 -0.000000 -0.000002 0.000000 -0.000001 -0.000002 0.000000 -0.000001 -0.000002 0.000000 -0.000001 0.000000 -0.000000 0.000000 -0.000001 -0.000000 
8.892159 82.620499 -0.546523 3.609911 -51.187692 3.419920 -0.000000 -0.000002 0.000000 -17.369270 17.436599 5.042287 38.401653 27.275090 3.374700 -14.784993 21.684862 -15.068372 0.000000 -0.000001 0.000000 0.000001 -0.000001 -0.000000 -0.000000 -0.000001 -0.000001 -20.565614 -39.634280 -18.885992 35.831159 -10.814863 -2.383381 -19.406611 -6.458646 12.587306 0.000000 -0.000002 -0.000000 0.000001 0.000000 0.000001 0.000001 0.000001 0.000002 9.801843 -5.614125 2.077764 2.839596 -0.944635 -0.432631 -9.159908 -4.281939 -1.286581 -8.508167 -4.235826 -4.578833 10.792601 -17.958410 4.764732 -0.000000 0.000000 0.000000 -0.000000 0.000000 0.000000 -0.000000 0.000000 0.000000 -0.000000 0.000000 0.000000 -0.000000 0.000000 0.000000 -0.000000 0.000000 0.000000 -0.000000 0.000000 0.000000 -0.000000 0.000000 0.000000 -0.000000 0.000000 0.000000 -0.000000 0.000000 0.000000 -0.000000 0.000000 0.000000 -0.000000 0.000000 0.000000 -0.000000 0.000000 0.000000 -0.000000 0.000000 0.000000 -0.000000 0.000000 0.000000 -0.000000 0.000000 0.000000 -0.000000 0.000000 0.000000 -0.000000 0.000000 0.000000 -0.000000 0.000000 0.000000 -0.726153 -4.749523 -1.633527 13.608981 6.402172 -62.096658 -0.018538 -42.554032 -0.009072 -13.603443 -3.571044 1.026138 10.535352 -8.677447 14.409841 -0.467902 14.589202 -6.973095 0.000000 0.000002 0.000001 1.151726 -2.065189 -14.597905 -0.003377 -1.063953 -23.629338 -0.000001 0.000001 0.000001 1.286360 -0.406001 -33.745055 -0.338480 -1.381882 -28.176892 0.000001 -0.000003 -0.000002 -0.495278 -2.655276 -41.684105 -0.411498 -1.542213 -30.413316 -0.000001 0.000003 0.000003 0.084679 -0.856780 -35.964532 -0.409959 -1.748225 -33.782484 0.000002 -0.000000 -0.000001 0.000001 0.000000 0.000002 -0.995144 1.645281 1.031887 2.815505 7.867690 70.540076 0.304934 46.539481 -0.149993 15.123885 14.466180 3.017639 8.265278 7.734445 -18.880799 5.407324 -20.572683 9.835181 -0.000002 0.000001 0.000001 0.408417 3.965423 17.675042 -0.054644 1.174332 26.247000 -0.000001 -0.000004 0.000001 -5.466616 0.586063 34.785672 -0.319729 1.346292 27.387889 0.000000 0.000000 0.000000 -11.377704 -2.913350 41.731056 -0.499256 1.683028 33.531427 0.000001 -0.000003 -0.000001 -5.699269 1.294634 36.479214 -0.562728 1.957364 38.514197 -0.000001 -0.000001 0.000002 0.000001 0.000001 -0.000001 0.000000 0.000001 -0.000000 0.000000 0.000001 -0.000000 0.000000 0.000001 -0.000000 0.000000 0.000001 -0.000000 0.000000 0.000001 -0.000000 -0.000000 0.000001 -0.000000 -0.000001 0.000001 -0.000000 -0.000001 0.000001 -0.000000 -0.000001 -0.000002 0.000000 -0.000000 -0.000002 0.000000 
